<svg version="1.0" xmlns="http://www.w3.org/2000/svg" width="700" height="700" viewBox="0 0 700 700">
  <g transform="translate(0,700) scale(0.1,-0.1)" fill="#000000" stroke="none">
    <path d="M3200 6300 c-1378 -74 -2578 -1274 -2652 -2652 -74 -1378 1274 -2578 2652 -2652 1378 -74 2578 1274 2652 2652 74 1378 -1274 2578 -2652 2652 -138 7 -138 7 0 0z"/>
    <path d="M2800 5200 l0 -1400 800 0 800 0 0 200 0 200 -600 0 -600 0 0 1200 0 1200 -200 0 -200 0 0 -1400z"/>
    <circle cx="4200" cy="4200" r="100"/>
  </g>
</svg>